<?xml version="1.0" encoding="UTF-8" standalone="no"?>
<!-- Created with Inkscape (http://www.inkscape.org/) -->

<svg
   width="21.84053mm"
   height="22.813698mm"
   viewBox="0 0 21.84053 22.813698"
   version="1.1"
   id="svg5"
   xml:space="preserve"
   inkscape:export-filename="bitmap.svg"
   inkscape:export-xdpi="96"
   inkscape:export-ydpi="96"
   xmlns:inkscape="http://www.inkscape.org/namespaces/inkscape"
   xmlns:sodipodi="http://sodipodi.sourceforge.net/DTD/sodipodi-0.dtd"
   xmlns="http://www.w3.org/2000/svg"
   xmlns:svg="http://www.w3.org/2000/svg"><sodipodi:namedview
     id="namedview7"
     pagecolor="#ffffff"
     bordercolor="#000000"
     borderopacity="0.25"
     inkscape:showpageshadow="2"
     inkscape:pageopacity="0.0"
     inkscape:pagecheckerboard="0"
     inkscape:deskcolor="#d1d1d1"
     inkscape:document-units="mm"
     showgrid="false"
     inkscape:lockguides="false"
     inkscape:zoom="1"
     inkscape:cx="-40"
     inkscape:cy="122.5"
     inkscape:window-width="1854"
     inkscape:window-height="1011"
     inkscape:window-x="0"
     inkscape:window-y="0"
     inkscape:window-maximized="1"
     inkscape:current-layer="layer1" /><defs
     id="defs2" /><g
     inkscape:label="Capa 1"
     inkscape:groupmode="layer"
     id="layer1"
     transform="translate(-200.23186,-143.63756)"><path
       style="fill:#287a40;fill-opacity:1;stroke:#d1262d;stroke-width:0.529211;stroke-linejoin:round;stroke-dasharray:none;stroke-opacity:1;paint-order:stroke markers fill"
       d="m 207.13126,151.34654 c 0,0 -3.8537,3.5917 -0.97962,7.96762 2.87408,4.37591 8.81661,2.35288 10.25366,0.13137 1.43703,-2.2215 1.30692,-6.20352 -1.04468,-7.77169 -2.3516,-1.56816 0.84951,-5.55222 3.06898,-3.39654 2.21946,2.15569 4.76879,5.29049 2.48223,12.40883 -2.28656,7.11835 -12.67033,5.28972 -12.67033,5.28972 0,0 -7.18468,-1.30668 -7.70689,-9.07811 -0.5222,-7.77143 4.44301,-9.53424 5.68284,-8.7508 1.23984,0.78344 1.17529,2.4807 0.91381,3.1996 z"
       id="path16507" /><path
       style="fill:#287a40;fill-opacity:1;stroke:#d1262d;stroke-width:0.529211;stroke-linejoin:round;stroke-dasharray:none;stroke-opacity:1;paint-order:stroke markers fill"
       d="m 208.76398,145.66498 c 0,0.39185 0,9.33857 0,9.33857 0,0 0.45945,2.15569 2.22149,2.15569 1.76204,0 2.34728,-1.3054 2.41438,-2.22023 0.0671,-0.91483 0.0671,-9.27403 0.0671,-9.27403 0,0 -0.32678,-1.76282 -2.22123,-1.76282 -1.89446,0 -2.48171,1.76282 -2.48171,1.76282 z"
       id="path16509" /></g></svg>
