<?xml version="1.0" encoding="UTF-8" standalone="no"?>
<!-- Created with Inkscape (http://www.inkscape.org/) -->

<svg
   width="103.97358mm"
   height="33.181465mm"
   viewBox="0 0 103.97358 33.181466"
   version="1.1"
   id="svg5"
   xml:space="preserve"
   inkscape:export-filename="bitmap.svg"
   inkscape:export-xdpi="96"
   inkscape:export-ydpi="96"
   xmlns:inkscape="http://www.inkscape.org/namespaces/inkscape"
   xmlns:sodipodi="http://sodipodi.sourceforge.net/DTD/sodipodi-0.dtd"
   xmlns="http://www.w3.org/2000/svg"
   xmlns:svg="http://www.w3.org/2000/svg"><sodipodi:namedview
     id="namedview7"
     pagecolor="#ffffff"
     bordercolor="#000000"
     borderopacity="0.25"
     inkscape:showpageshadow="2"
     inkscape:pageopacity="0.0"
     inkscape:pagecheckerboard="0"
     inkscape:deskcolor="#d1d1d1"
     inkscape:document-units="mm"
     showgrid="false"
     inkscape:lockguides="false"
     inkscape:zoom="1"
     inkscape:cx="-40"
     inkscape:cy="122.5"
     inkscape:window-width="1854"
     inkscape:window-height="1011"
     inkscape:window-x="0"
     inkscape:window-y="0"
     inkscape:window-maximized="1"
     inkscape:current-layer="layer1" /><defs
     id="defs2" /><g
     inkscape:label="Capa 1"
     inkscape:groupmode="layer"
     id="layer1"
     transform="translate(-38.096016,-122.28653)"><rect
       style="fill:#00097e;fill-opacity:1;stroke:#d1262d;stroke-width:2.02283;stroke-linejoin:round;stroke-opacity:1;paint-order:stroke markers fill"
       id="rect590"
       width="101.95075"
       height="31.158632"
       x="39.10743"
       y="123.29794"
       rx="8.260334"
       ry="9.0188456"
       inkscape:export-filename="sonido.svg"
       inkscape:export-xdpi="96"
       inkscape:export-ydpi="96" /><text
       xml:space="preserve"
       style="font-size:7.4968px;font-family:C059;-inkscape-font-specification:'C059, Normal';fill:#26d15c;fill-opacity:1;stroke:#d1262d;stroke-width:0.456382;stroke-linejoin:round;stroke-dasharray:none;stroke-opacity:1;paint-order:stroke markers fill"
       x="47.385807"
       y="132.24065"
       id="text3663"><tspan
         sodipodi:role="line"
         id="tspan3661"
         style="fill:#26d15c;fill-opacity:1;stroke:#d1262d;stroke-width:0.456382;stroke-dasharray:none;stroke-opacity:1"
         x="47.385807"
         y="132.24065">SONIDO</tspan></text><path
       style="fill:#26d15c;fill-opacity:1;stroke:#d1262d;stroke-width:0.178391;stroke-linejoin:round;stroke-dasharray:none;stroke-opacity:1;paint-order:stroke markers fill"
       d="m 124.95164,136.66241 -0.0155,9.24658 c 0,0 -0.32696,0.91843 -1.16749,0.32684 -0.84054,-0.59159 -3.5335,-2.95754 -3.5335,-2.95754 l -2.055,0.0623 c 0,0 -0.43512,-0.0311 -0.45107,-0.48251 -0.0159,-0.45148 -0.0314,-3.01991 -0.0314,-3.01991 0,0 0.12448,-0.45169 0.56047,-0.48275 0.43598,-0.0312 2.11718,0.0623 2.11718,0.0623 l 3.64248,-3.12889 c 0,0 0.70036,-0.40497 0.93394,0.37354 z"
       id="path15740" /><path
       style="fill:#26d15c;fill-opacity:1;stroke:#d1262d;stroke-width:0.178391;stroke-linejoin:round;stroke-dasharray:none;stroke-opacity:1;paint-order:stroke markers fill"
       d="m 126.49291,138.76409 c 0,0 2.05444,2.31961 0.13999,4.87229 0,0 -0.20201,1.50964 1.27651,1.04279 0,0 2.64598,-4.34309 -0.54502,-6.95817 0,0 -1.01152,-0.0308 -0.87148,1.04309 z"
       id="path15742" /><path
       style="fill:#26d15c;fill-opacity:1;stroke:#d1262d;stroke-width:0.178391;stroke-linejoin:round;stroke-dasharray:none;stroke-opacity:1;paint-order:stroke markers fill"
       d="m 128.78826,136.56093 c 0,0 4.29602,4.17221 0.0311,9.52702 0,0 0.21878,1.40123 1.46388,0.68493 0,0 4.63909,-6.00909 -0.43587,-11.17708 0,0 -1.24604,-0.21794 -1.05901,0.96513 z"
       id="path15744" /><path
       style="fill:#26d15c;fill-opacity:1;stroke:#d1262d;stroke-width:0.15484;stroke-linejoin:round;stroke-dasharray:none;stroke-opacity:1;paint-order:stroke markers fill"
       d="m 47.973257,136.19514 9.45845,10.0317 c 0,0 0.07674,0.72619 -0.611316,0.66886 l -1.54792,-1.75812 0.05762,1.41424 c 0,0 -0.17242,0.40114 -0.668939,0.32463 l -3.343795,-3.00001 -2.02533,-0.019 c 0,0 -0.400826,-0.0383 -0.439489,-0.38223 -0.03867,-0.34387 -0.01956,-3.93624 -0.01956,-3.93624 0,0 0.267516,-0.40119 0.840764,-0.28653 l -2.311645,-2.46509 c 0,0 -0.134056,-0.63034 0.611165,-0.59229 z"
       id="path15746-3" /><path
       style="fill:#26d15c;fill-opacity:1;stroke:#d1262d;stroke-width:0.15484;stroke-linejoin:round;stroke-dasharray:none;stroke-opacity:1;paint-order:stroke markers fill"
       d="m 51.546656,138.92747 3.152866,-2.67509 c 0,0 0.534659,-0.3058 0.515624,0 -0.01904,0.30582 -0.07614,6.63044 -0.07614,6.63044 z"
       id="path15748-6" /></g></svg>
