<?xml version="1.0" encoding="UTF-8" standalone="no"?>
<!-- Created with Inkscape (http://www.inkscape.org/) -->

<svg
   width="131.53946mm"
   height="65.512138mm"
   viewBox="0 0 131.53946 65.512138"
   version="1.1"
   id="svg5"
   xml:space="preserve"
   inkscape:version="1.2.2 (b0a8486541, 2022-12-01)"
   sodipodi:docname="titulo.png"
   xmlns:inkscape="http://www.inkscape.org/namespaces/inkscape"
   xmlns:sodipodi="http://sodipodi.sourceforge.net/DTD/sodipodi-0.dtd"
   xmlns="http://www.w3.org/2000/svg"
   xmlns:svg="http://www.w3.org/2000/svg"><sodipodi:namedview
     id="namedview7"
     pagecolor="#ffffff"
     bordercolor="#000000"
     borderopacity="0.25"
     inkscape:showpageshadow="2"
     inkscape:pageopacity="0.0"
     inkscape:pagecheckerboard="0"
     inkscape:deskcolor="#d1d1d1"
     inkscape:document-units="mm"
     showgrid="false"
     inkscape:zoom="0.98898724"
     inkscape:cx="150.65917"
     inkscape:cy="57.12915"
     inkscape:window-width="1854"
     inkscape:window-height="1011"
     inkscape:window-x="0"
     inkscape:window-y="0"
     inkscape:window-maximized="1"
     inkscape:current-layer="layer1" /><defs
     id="defs2" /><g
     inkscape:label="Capa 1"
     inkscape:groupmode="layer"
     id="layer1"
     transform="translate(-29.287376,-90.508039)"><g
       id="g13568"
       transform="translate(-9.3677152,0.26857468)"><path
         id="path4012"
         style="opacity:1;fill:#feba05;fill-opacity:1;stroke:#f80400;stroke-width:1.4;stroke-linecap:butt;stroke-linejoin:round;stroke-dasharray:none;stroke-opacity:1;paint-order:stroke markers fill"
         d="m 110.23326,90.939578 c -24.825386,0.04332 -41.491009,11.625652 -41.491009,11.625652 -12.105368,-2.809333 -20.666439,8.69404 -20.666439,8.69404 -11.368363,14.78009 -8.36073,21.13566 -8.36073,21.13566 5.149387,10.70111 17.456299,1.00252 17.456299,1.00252 l -1.33842,5.68544 17.529163,-9.34361 c -0.590886,4.13798 1.064017,4.42143 1.064017,4.42143 3.87809,1.79723 8.985498,-2.34094 8.985498,-2.34094 0,0 -0.827623,3.42922 1.725993,2.50682 2.553623,-0.92233 7.842416,-7.35717 7.842416,-7.35717 l -0.05116,5.78363 c 0,0 -0.151635,2.13702 1.938383,1.93941 2.749719,-0.25998 6.101949,-4.72942 6.101949,-4.72942 L 100.8266,118.9911 c 3.21567,-1.64925 6.05337,-0.45571 6.05337,0.0951 -1.56059,0.28339 -1.98698,1.04025 -1.98698,1.04025 -3.31136,10.40457 -1.37043,13.52579 -1.37043,13.52579 3.45269,1.70218 9.17411,-2.1761 9.17411,-2.1761 -0.14262,4.72912 3.19285,1.4427 3.19285,1.4427 l 6.32325,-6.01061 c -0.79311,5.32859 5.58347,-0.73897 6.66327,0.84485 l -3.747,6.15421 c 5.0128,-3.02712 7.85706,-1.6737 7.85706,-1.6737 l -9.92976,9.41099 0.82546,13.40706 c 5.58012,-2.57738 12.8973,-9.12104 17.3564,-13.24179 2.54875,-2.35535 5.50959,-4.13782 3.73553,-9.71802 -2.31791,-5.91137 -12.8393,-3.28749 -12.8393,-3.28749 -0.0473,-0.70921 1.32419,-3.59414 3.45238,-4.58711 2.12811,-0.99297 2.3891,-1.72659 2.3891,-1.72659 1.37168,-2.79096 1.23738,-8.176 1.23738,-8.176 l -2.31107,0.22491 3.17497,-4.26638 c 0,0 -12.78276,5.2723 -14.58845,5.77379 -1.80569,0.50149 -1.88354,1.03914 -2.22475,1.97598 -0.77564,2.12965 -1.18731,6.50615 -1.20716,6.49625 l -3.79684,1.90318 c 0,0 0.1846,-5.48101 0.10702,-8.00733 -0.0546,-1.77884 0.34674,-3.14751 -2.8322,-4.3454 -3.91197,-1.1033 -14.86203,3.2312 -14.86203,3.2312 0,0 -0.0937,-12.93409 -0.0937,-15.55897 0,-2.624956 -0.935287,-2.400723 -0.935287,-2.400723 -3.972398,-0.04766 -10.356062,5.628253 -10.356062,5.628253 l 4.208007,0.0236 -0.401272,19.2479 -4.635309,2.71903 c 0,0 0.09452,-7.63776 0.09452,-10.04982 0,-2.41213 -2.36344,-2.48256 -2.36344,-2.48256 -6.667162,-1.08811 -16.109329,4.10512 -16.109329,4.10512 l 3.045819,-6.31989 -10.371772,5.25524 c 2.741243,2.37419 1.395654,4.81691 1.329034,4.91775 -5.216009,5.35052 -11.237656,5.35296 -12.475104,4.75063 -1.237448,-0.60233 -3.749777,-2.34879 -0.540234,-11.11006 3.20955,-8.76126 13.711331,-10.0329 13.711331,-10.0329 l -1.773302,8.0587 c 48.00502,-40.578505 93.22355,-4.44851 93.22355,-4.44851 l -2.60126,3.8305 c -6.71561,1.32421 -11.53946,4.63517 -11.53946,4.63517 10.16718,-1.46608 8.48851,0.37858 8.48851,0.37858 -0.85137,0.14262 -2.36416,1.27689 -2.36416,1.27689 -2.6726,3.52314 -1.72565,12.34336 -1.72565,12.34336 2.45942,3.40503 9.71854,-1.72655 9.71854,-1.72655 -0.33124,1.56104 0.30631,2.74302 0.30631,2.74302 3.30995,0.75715 12.98166,-11.82282 12.98166,-11.82282 l -8.03827,3.97237 c 0,0 0.2151,-6.31894 0.48576,-8.85838 0.27067,-2.53944 -3.34709,-3.74757 -3.34709,-3.74757 0,0 13.51268,-13.642744 8.69663,-16.586071 -4.81599,-2.943327 -17.65939,4.816761 -17.65939,4.816761 -14.22106,-7.364 -27.5413,-9.897202 -39.10665,-9.919292 -0.0976,-1.86e-4 -0.19514,-1.7e-4 -0.29249,0 z m 51.16173,8.724016 c 0.15607,-0.01164 0.27416,0.01258 0.3452,0.07906 0.75779,0.709216 -3.55069,6.827486 -3.55069,6.827486 l -3.57756,-2.5249 c 0.22607,-0.81543 5.2744,-4.269122 6.78305,-4.381651 z M 77.499339,119.358 c 0,0 -3.222311,0.41326 -3.48971,3.9579 -0.267391,3.54456 -0.167431,4.54752 -0.167431,4.54752 l -3.790467,-8.41034 z m 54.240101,0.42013 0.047,1.27692 c 0,0 -3.03825,1.80902 -3.19205,1.27693 -0.15379,-0.53209 0.13031,-1.1707 0.14211,-1.2299 0.0118,-0.0592 3.00292,-1.32395 3.00292,-1.32395 z m 22.83065,1.80919 -0.0589,2.75435 c -1.25322,1.40673 -1.59629,1.06454 -1.59629,1.06454 0,0 -0.0828,-1.58476 -0.0475,-2.11667 0.0353,-0.5319 0.31936,-0.74466 0.31936,-0.74466 0,0 1.33588,-0.92216 1.38338,-0.95756 z m -42.94674,0.63355 -0.16794,3.02617 c -1.62191,1.5882 -1.6552,1.00304 -1.6552,1.00304 0,0 3.1e-4,-1.23698 0.0341,-2.08979 0.0338,-0.85282 0.36742,-0.95291 0.36742,-0.95291 z m -29.347042,0.6134 -0.449068,3.28662 c -1.867692,1.34794 -1.725993,0.25994 -1.725993,0.25994 -0.02346,-2.2465 0.61495,-2.6479 0.61495,-2.6479 z m 52.045772,9.43497 c 2.27012,0.87483 2.67309,3.71255 2.67309,3.71255 l -6.97653,4.75244 z"
         sodipodi:nodetypes="scccccccccccscccccccccccccscccccccssccsccscccccscccccscccccccccccccscccscssccscsccccccscccccccccccccccccccccccccc" /><g
         id="g2339"
         style="fill:#95b365;fill-opacity:1;stroke-width:0.3;stroke-dasharray:none"><path
           id="path374"
           style="fill:#95b365;fill-opacity:1;stroke:#000000;stroke-width:0.3;stroke-dasharray:none;stroke-opacity:0.996078"
           d="m 111.93651,92.640767 c -12.2391,-0.0067 -26.811045,2.755721 -42.726071,11.239623 0,0 -15.133172,-4.730354 -26.295036,17.3085 0,0 -3.015234,6.13974 -1.97869,11.39001 1.036545,5.25025 9.630796,3.39369 11.069091,2.47426 0,0 6.220306,-2.97586 7.122563,-4.44727 l -1.471745,6.21978 15.249199,-8.05946 -4.480864,-9.73119 2.909383,-5.21673 -7.090006,3.57859 c 0,0 3.043968,3.46129 -0.36742,6.72155 0,0 -11.66709,8.91864 -15.214058,0.78445 0,0 -0.670801,-18.77621 16.885791,-19.61224 l -1.597835,6.94996 c 0,0 40.740188,-38.935947 93.441328,-2.95434 l -3.19826,4.7749 c 0,0 -7.91807,2.09292 -8.9116,2.94401 0,0 4.77083,-0.14054 5.38262,0.31626 0.52644,0.39306 1.23721,1.60542 -1.40405,2.50837 0,0 -1.19137,0.26178 -1.45314,1.90066 -0.25876,1.62007 -1.32261,6.47595 -0.7705,10.00404 0,0 0.6687,1.63938 4.56458,0.18449 3.8959,-1.45489 4.98316,-3.26078 4.98316,-3.26078 l 0.45165,3.59513 c 0,0 5.41679,-3.74516 8.77776,-8.17625 0,0 -3.20336,3.07795 -5.27823,2.56522 l 0.1049,-10.83086 c 0,0 -0.0713,-1.89148 -2.45928,-2.12804 -1.7149,-0.16988 -2.19849,-0.047 -2.33474,0.0357 0.5581,-0.61507 10.54236,-11.64816 11.06238,-14.313859 0.5349,-2.742172 -0.73641,-2.708878 -2.77606,-2.708878 -2.03966,0 -12.00444,3.644117 -14.47922,5.717997 0,0 -14.75208,-9.761009 -37.7176,-9.773563 z m 50.01452,5.952091 c 0.38055,-0.0045 0.67932,0.104469 0.86558,0.358634 1.49009,2.033318 -4.35115,9.245428 -4.35115,9.245428 l -5.84099,-3.99614 c 0,0 6.66271,-5.576125 9.32656,-5.607922 z m -6.37842,21.144442 -0.16743,5.38417 c -2.97639,2.97653 -3.37706,1.47175 -3.37706,1.47175 0,0 -0.033,-3.07697 0.0336,-3.7791 0.0666,-0.70214 0.50126,-1.07022 0.50126,-1.07022 0,0 2.84217,-1.87271 3.00964,-2.0066 z" /><path
           id="path2291"
           style="fill:#95b365;fill-opacity:1;stroke:#000000;stroke-width:0.3;stroke-dasharray:none;stroke-opacity:0.996078"
           d="m 84.003851,114.9748 c -4.533897,0.009 -11.09803,3.29128 -11.09803,3.29128 1.062862,-0.36513 5.125785,0.0165 5.125785,0.0165 1.91328,0.51634 0.09457,2.22157 0.09457,2.22157 -1.60819,0.10562 -2.175578,0.85215 -2.175578,0.85215 -2.412309,7.99233 -1.335319,11.575 -1.335319,11.575 3.831006,2.22277 9.57616,-3.07423 9.57616,-3.07423 l 0.307475,3.64164 9.106937,-8.3442 c -4.28047,3.87918 -5.851839,2.64222 -5.851839,2.64222 l -0.03411,-11.23652 c -0.701881,-1.16361 -2.076132,-1.58862 -3.716053,-1.58544 z m -0.830957,6.134 0.0083,4.92424 c -3.912552,3.29389 -3.92896,1.75545 -3.92896,1.75545 0,0 -0.03355,-2.993 0.03307,-3.71192 0.06662,-0.71892 0.66921,-1.12034 0.66921,-1.12034 0,0 3.134608,-1.81403 3.218408,-1.84743 z" /><path
           id="path2291-3"
           style="fill:#95b365;fill-opacity:1;stroke:#000000;stroke-width:0.3;stroke-dasharray:none;stroke-opacity:0.996078"
           d="m 113.52584,114.64485 c -4.5339,0.009 -11.09803,3.29128 -11.09803,3.29128 1.06286,-0.36513 5.12579,0.0165 5.12579,0.0165 1.91328,0.51634 0.0946,2.22157 0.0946,2.22157 -1.60819,0.10562 -2.17558,0.85215 -2.17558,0.85215 -2.41231,7.99233 -1.33532,11.575 -1.33532,11.575 3.83101,2.22277 9.57616,-3.07423 9.57616,-3.07423 l 0.30747,3.64164 9.10694,-8.3442 c -4.28047,3.87918 -5.85184,2.64222 -5.85184,2.64222 l -0.0341,-11.23652 c -0.70188,-1.16361 -2.07613,-1.58862 -3.71605,-1.58544 z m -0.83096,6.134 0.008,4.92424 c -3.91255,3.29389 -3.92896,1.75545 -3.92896,1.75545 0,0 -0.0336,-2.993 0.0331,-3.71192 0.0666,-0.71892 0.66921,-1.12034 0.66921,-1.12034 0,0 3.13461,-1.81403 3.21841,-1.84743 z" /><path
           id="path2327"
           style="fill:#95b365;fill-opacity:1;stroke:#000000;stroke-width:0.3;stroke-dasharray:none;stroke-opacity:0.996078"
           d="m 137.7985,112.19306 -13.07672,5.20227 c 0,0 -1.47666,2.58873 -1.66657,11.10165 l 6.05338,-1.84434 c 0,0 1.60694,-0.70918 0.94465,0.85111 -0.66229,1.5603 -3.0732,4.49327 -3.0732,4.49327 0,0 10.92242,-4.68231 11.01793,4.35064 l -9.07903,6.19549 c 0,0 -1.51458,0.94601 -0.28422,-1.18236 1.23036,-2.12837 4.20904,-8.08684 4.20904,-8.08684 l -8.70127,9.22165 0.61443,10.87789 c 0,0 14.0463,-9.41131 16.64705,-12.91135 2.60073,-3.50005 5.72257,-8.18081 -0.66198,-10.78229 0,0 -2.31874,-1.13467 -8.84442,0 0,0 -1.23013,0.14176 -0.61495,-1.74976 0.61518,-1.89154 2.08076,-3.92509 5.86476,-5.2493 0,0 1.11445,-0.87317 1.37149,-7.33082 0,0 -0.94478,-0.31233 -2.50631,0.37879 -1.3931,0.61658 -0.44717,-1.82124 1.78594,-3.5357 z m -4.4819,5.52111 -0.42529,3.97237 c 0,0 -4.68174,3.07442 -5.24981,2.2226 -0.56807,-0.85183 0.23719,-3.49901 0.23719,-3.49901 z" /><path
           style="fill:#95b365;fill-opacity:1;stroke:#000000;stroke-width:0.3;stroke-dasharray:none;stroke-opacity:0.996078"
           d="m 91.758719,103.84615 c 0,0 2.648318,-0.73267 2.671963,0.6149 0.02365,1.34757 -0.543962,28.73031 -0.543962,28.73031 0,0 9.3e-5,1.22989 1.229709,0.47311 1.22962,-0.75678 4.70593,-3.85438 4.70593,-3.85438 l -0.196892,-28.56587 c 0,0 0.167597,-1.638362 -1.303944,-1.00298 -1.471544,0.63538 -6.562804,3.60491 -6.562804,3.60491 z"
           id="path2332" /></g><path
         style="fill:#287a40;fill-opacity:1;stroke:#000000;stroke-width:0.3;stroke-dasharray:none;stroke-opacity:0.996078"
         d="m 42.272884,122.66298 6.490871,-0.0709 -4.16e-4,2.21117 c 0,0 0.378159,2.28189 3.334572,3.28668 2.577422,0.65019 4.552181,-0.31918 5.178767,-0.36652 0,0 3.014652,-1.13529 5.391217,-2.74311 l 1.135124,-0.78015 c 0,0 1.140851,-1.03491 1.18796,-1.53139 l 5.111007,0.008 2.800668,6.09459 -15.240793,8.05939 1.454627,-6.1616 c 0,0 -0.646031,1.23986 -7.172279,4.42026 0,0 -3.700908,1.70241 -7.815259,0.74473 0,0 -2.163101,-0.47307 -2.991006,-2.53022 -0.827904,-2.05715 -0.153794,-6.56167 0.295489,-8.06332 0.449284,-1.50164 0.839451,-2.57761 0.839451,-2.57761 z"
         id="path2341"
         sodipodi:nodetypes="ccccccccccccccssc" /><path
         style="fill:#287a40;fill-opacity:1;stroke:#000000;stroke-width:0.3;stroke-dasharray:none;stroke-opacity:0.996078"
         d="m 75.555281,122.61579 5.107781,-0.0473 -0.709393,0.35474 c 0,0 -0.591531,0.40176 -0.650464,1.15854 -0.05893,0.75678 -0.05893,3.7361 -0.05893,3.7361 0,0 0.142063,1.45412 3.93705,-1.77344 l 0.01173,-3.44056 4.563959,-0.0473 -0.02369,5.22583 c 0,0 1.41879,1.31229 5.710491,-2.48283 l -8.950157,8.18164 -0.271889,-3.61782 c 0,0 -5.956081,5.2823 -9.567796,3.09196 0,0 -0.948893,-3.27493 0.901308,-10.33956 z"
         id="path2343" /><path
         style="fill:#287a40;fill-opacity:1;stroke:#000000;stroke-width:0.3;stroke-dasharray:none;stroke-opacity:0.996078"
         d="m 105.06866,122.23994 5.10778,-0.0473 -0.7094,0.35474 c 0,0 -0.59153,0.40176 -0.65046,1.15854 -0.0589,0.75678 -0.0589,3.7361 -0.0589,3.7361 0,0 0.14206,1.45412 3.93705,-1.77344 l 0.0117,-3.44056 4.56396,-0.0473 -0.0237,5.22583 c 0,0 1.41879,1.31229 5.71049,-2.48283 l -8.95016,8.18164 -0.27189,-3.61782 c 0,0 -5.95608,5.2823 -9.56779,3.09196 0,0 -0.94889,-3.27493 0.90131,-10.33956 z"
         id="path2343-6" /><path
         style="fill:#287a40;fill-opacity:1;stroke:#000000;stroke-width:0.3;stroke-dasharray:none;stroke-opacity:0.996078"
         d="m 94.083504,122.60543 5.668021,0.0167 0.06502,7.22946 c 0,0 -3.026937,2.63659 -4.670182,3.807 0,0 -1.158683,0.79227 -1.253223,-0.40193 z"
         id="path2345" /><path
         style="fill:#287a40;fill-opacity:1;stroke:#000000;stroke-width:0.3;stroke-dasharray:none;stroke-opacity:0.996078"
         d="m 123.52822,122.2541 h 3.96252 c 0,0 -0.25022,1.28756 0.16759,1.70557 0.41782,0.41802 2.65793,-0.66909 4.49739,-1.75579 l 5.31721,-0.0668 -0.26753,0.53512 c 0,0 -2.13747,0.72227 -3.58061,1.88846 -0.78273,0.63252 -2.30484,2.16363 -2.51197,4.28595 0,0 -0.0894,0.89427 0.85531,0.84411 0.94472,-0.0502 7.21096,-1.66801 10.55475,0.90696 0,0 2.89247,1.67213 1.75547,4.79881 -1.137,3.12669 -3.04295,5.30037 -3.04295,5.30037 0,0 -3.18587,3.2856 -6.46297,5.59304 -3.27711,2.30744 -10.02439,7.09744 -10.02439,7.09744 l -0.60103,-10.90131 8.6277,-9.12945 c 0,0 -3.5788,7.1732 -3.91288,7.64138 -0.33409,0.46818 -1.63862,2.79208 0.4683,1.23719 2.10693,-1.55488 8.64455,-5.85201 8.64455,-5.85201 0,0 0.88722,-8.6774 -10.93566,-4.42131 0,0 2.88616,-3.64156 3.05095,-4.44545 0.16479,-0.80388 0.49667,-1.22943 -0.87501,-0.94576 -1.37169,0.28366 -6.10126,1.89153 -6.10126,1.89153 0,0 0.096,-4.75482 0.41452,-6.20805 z"
         id="path2376"
         sodipodi:nodetypes="ccscccscccscsc" /><path
         style="fill:#287a40;fill-opacity:1;stroke:#000000;stroke-width:0.3;stroke-dasharray:none;stroke-opacity:0.996078"
         d="m 147.73938,122.3044 4.44794,-0.0336 c 0,0 -0.1337,0.25101 -0.1337,0.55192 0,0.3009 -0.0338,3.762 -0.0338,3.762 0,0 0.51906,1.50492 3.36124,-1.43791 l 0.11707,-2.87585 5.06621,-0.0336 -0.0337,4.39765 c 0,0 1.53816,0.85275 5.16653,-2.40777 0,0 -2.67529,3.69495 -8.62756,8.00893 l -0.45113,-3.57795 c 0,0 -1.22694,1.88473 -4.98664,3.23267 -3.75971,1.34795 -4.54041,-0.0237 -4.54041,-0.0237 0,0 -0.64311,-3.23515 0.64795,-9.56275 z"
         id="path2405" /><path
         style="fill:#ffffff;fill-opacity:1;stroke:#000000;stroke-width:0.3;stroke-dasharray:none;stroke-opacity:1"
         d="m 135.00677,94.221956 -14.44711,15.483014 -0.9698,-2.84263 -0.23422,3.07685 -3.91196,-4.41424 2.74217,5.98597 -5.75188,0.66843 5.3502,0.56877 -2.10641,1.03654 2.24056,0.1676 -2.70899,4.41398 c 0,0 4.61358,-4.31339 4.6478,-4.14645 0.0342,0.16695 1.90654,3.87918 1.90654,3.87918 l -0.435,-4.48151 6.05273,-0.43487 -5.28371,-1.06973 4.34814,-1.83952 -4.71547,0.93635 z"
         id="path2407" /></g></g></svg>
